<svg width="32" height="32" viewBox="0 0 32 32" fill="none" xmlns="http://www.w3.org/2000/svg">
<path d="M29 6.00001H24V4.00001C24 2.68001 22 2.68001 22 4.00001V6.00001H10V4.00001C10 2.68001 8 2.68001 8 4.00001V6.00001H3C2.45 6.00001 2 6.45001 2 7.00001V28C2 28.55 2.45 29 3 29H29C29.55 29 30 28.55 30 28V7.00001C30 6.45001 29.55 6.00001 29 6.00001ZM8 8.00001V9.00001C8 10.32 10 10.32 10 9.00001V8.00001H22V9.00001C22 10.32 24 10.32 24 9.00001V8.00001H28V13H4V8.00001H8ZM4 27V15H28V27H4Z" fill="black"/>
</svg>
