<svg width="32" height="32" viewBox="0 0 32 32" fill="none" xmlns="http://www.w3.org/2000/svg">
<path d="M16 2C10.49 2 6 6.49 6 12C6 16.74 12.85 30 16 30C19.15 30 26 16.74 26 12C26 6.49 21.51 2 16 2ZM16 27.97C14.21 27.01 8 16.51 8 12C8 7.49 11.59 4 16 4C20.41 4 24 7.59 24 12C24 16.41 17.79 27.01 16 27.97Z" fill="black"/>
<path d="M16 7C13.24 7 11 9.24 11 12C11 14.76 13.24 17 16 17C18.76 17 21 14.76 21 12C21 9.24 18.76 7 16 7ZM16 15C14.35 15 13 13.65 13 12C13 10.35 14.35 9 16 9C17.65 9 19 10.35 19 12C19 13.65 17.65 15 16 15Z" fill="black"/>
</svg>
