<?xml version="1.0" standalone="no"?>
<!DOCTYPE svg PUBLIC "-//W3C//DTD SVG 20010904//EN"
 "http://www.w3.org/TR/2001/REC-SVG-20010904/DTD/svg10.dtd">
<svg version="1.0" xmlns="http://www.w3.org/2000/svg"
 width="200.000000pt" height="200.000000pt" viewBox="0 0 200.000000 200.000000"
 preserveAspectRatio="xMidYMid meet">
<metadata>
Created by potrace 1.14, written by Peter Selinger 2001-2017
</metadata>
<g transform="translate(0.000000,200.000000) scale(0.100000,-0.100000)"
fill="#000000" stroke="none">
<path d="M1050 1990 c0 -5 7 -10 15 -10 8 0 15 5 15 10 0 6 -7 10 -15 10 -8 0
-15 -4 -15 -10z"/>
<path d="M1190 1971 c0 -17 -5 -19 -35 -14 -30 5 -36 2 -43 -18 -10 -25 -5
-56 10 -65 5 -3 23 -7 40 -8 34 -3 41 10 51 82 4 32 2 42 -9 42 -8 0 -14 -9
-14 -19z m-14 -46 c4 -8 0 -22 -7 -31 -10 -13 -14 -13 -26 -1 -16 16 -7 47 13
47 8 0 17 -7 20 -15z"/>
<path d="M777 1969 c-28 -16 -37 -50 -21 -80 20 -40 59 -50 109 -27 43 20 27
76 -19 64 -31 -8 -35 -26 -6 -26 29 0 24 -18 -7 -26 -46 -12 -78 52 -40 78 6
3 25 4 44 1 19 -3 33 -1 33 5 0 22 -61 29 -93 11z"/>
<path d="M989 1963 c0 -5 -2 -21 -2 -38 -3 -44 -35 -47 -39 -4 -4 45 -28 51
-28 7 0 -48 11 -59 56 -56 42 4 41 2 35 81 -1 16 -20 25 -22 10z"/>
<path d="M1050 1920 c0 -37 4 -50 13 -48 7 3 12 22 12 48 0 26 -5 45 -12 47
-9 3 -13 -10 -13 -47z"/>
<path d="M1245 1930 c-4 -6 7 -10 24 -10 41 0 40 -14 -1 -17 -41 -3 -57 -19
-38 -37 15 -14 73 -26 77 -16 1 3 7 18 13 34 8 21 7 32 -1 42 -13 16 -65 19
-74 4z m45 -49 c0 -12 -28 -22 -34 -12 -3 5 -3 11 1 15 9 9 33 7 33 -3z"/>
<path d="M1355 1874 c-21 -51 -4 -65 24 -19 18 30 24 35 36 25 13 -10 13 -16
0 -40 -10 -20 -12 -31 -4 -35 12 -8 12 -8 32 31 20 38 8 59 -40 69 -30 6 -33
4 -48 -31z"/>
<path d="M602 1877 c-15 -7 -22 -17 -20 -31 2 -17 10 -21 41 -20 20 1 37 -3
37 -7 0 -5 -6 -10 -12 -10 -7 -1 -17 -2 -23 -4 -5 -1 -14 -3 -20 -4 -5 -1 -4
-5 4 -10 17 -11 67 5 74 23 10 25 -10 39 -47 34 -20 -2 -36 0 -36 4 0 8 15 12
38 9 6 -1 12 2 12 7 0 16 -23 20 -48 9z"/>
<path d="M513 1873 c-18 -7 -16 -23 3 -23 10 0 14 -6 10 -15 -3 -8 -1 -15 4
-15 12 0 13 30 2 46 -4 6 -13 9 -19 7z"/>
<path d="M1479 1839 c-24 -24 -24 -55 0 -69 27 -14 64 -13 58 3 -2 6 -12 11
-21 9 -23 -4 -32 26 -13 45 14 14 17 13 33 -5 21 -25 38 -19 24 7 -14 27 -58
33 -81 10z"/>
<path d="M458 1797 c-7 -7 -21 -18 -30 -23 -16 -9 -14 -13 16 -48 37 -43 62
-34 27 10 -36 46 -6 61 35 17 16 -17 28 -23 34 -17 7 7 -1 21 -21 42 -35 36
-42 38 -61 19z"/>
<path d="M860 1796 c-93 -16 -248 -69 -298 -101 -62 -41 -112 -79 -112 -85 0
-3 -19 -26 -41 -50 -58 -62 -96 -137 -118 -231 l-19 -80 142 6 c80 4 156 12
176 20 19 7 83 33 142 57 l107 43 7 40 c10 60 18 66 69 50 48 -14 138 -13 197
3 44 11 65 0 72 -38 6 -33 17 -60 25 -61 21 -2 44 -10 108 -38 73 -32 123 -39
178 -28 18 4 32 2 36 -5 6 -9 17 -9 46 1 21 7 49 10 63 8 37 -7 70 9 70 33 0
11 -7 37 -15 56 -13 31 -27 52 -75 111 -6 7 -10 16 -10 20 0 19 -121 124 -192
166 -43 26 -78 45 -78 42 0 -2 -32 9 -71 26 -38 16 -93 32 -122 34 -29 1 -88
5 -132 8 -46 3 -112 0 -155 -7z"/>
<path d="M1582 1784 c-27 -19 -29 -60 -3 -74 25 -13 51 -13 51 0 0 6 -9 10
-19 10 -11 0 -23 5 -26 11 -12 19 2 21 33 5 16 -8 32 -12 36 -9 13 14 5 53
-13 63 -26 13 -33 13 -59 -6z m56 -22 c4 -14 0 -15 -22 -6 -9 3 -16 10 -16 14
0 12 33 5 38 -8z"/>
<path d="M345 1714 c-9 -9 -14 -23 -11 -31 3 -8 6 -16 6 -19 0 -2 13 -10 29
-18 25 -13 31 -13 50 0 11 8 21 25 20 37 l0 22 -16 -22 c-8 -13 -22 -23 -31
-23 -12 0 -10 5 7 24 13 14 20 29 16 35 -10 16 -51 13 -70 -5z m45 -13 c0 -5
-7 -11 -15 -15 -9 -3 -15 0 -15 9 0 8 7 15 15 15 8 0 15 -4 15 -9z"/>
<path d="M1760 1703 c-26 -10 -60 -46 -60 -65 0 -26 36 -58 66 -58 27 0 30 25
3 25 -42 1 -53 44 -15 64 32 17 61 10 61 -14 0 -21 26 -28 32 -9 9 28 -53 69
-87 57z"/>
<path d="M277 1648 c-9 -5 -17 -15 -17 -23 0 -7 -9 -17 -20 -20 -11 -3 -20
-13 -20 -21 0 -8 -8 -14 -17 -14 -13 -1 -7 -11 22 -35 22 -19 43 -35 48 -35
16 0 6 25 -18 45 -16 13 -22 24 -17 33 7 10 15 8 36 -9 14 -11 34 -18 42 -15
12 5 9 11 -16 32 -42 36 -25 56 20 24 20 -14 35 -19 41 -13 15 15 -63 63 -84
51z"/>
<path d="M1817 1578 c-32 -18 -39 -46 -17 -68 25 -25 52 -27 43 -2 -6 14 -4
15 9 4 14 -11 19 -10 32 9 14 21 7 58 -12 60 -4 0 -14 2 -23 4 -8 1 -23 -1
-32 -7z m53 -34 c0 -8 -4 -14 -9 -14 -11 0 -22 26 -14 34 9 9 23 -3 23 -20z
m-37 -8 c6 -16 -2 -28 -14 -20 -12 7 -11 34 0 34 5 0 11 -6 14 -14z"/>
<path d="M168 1506 c-34 -17 -37 -62 -4 -77 52 -24 101 14 77 59 -13 25 -43
33 -73 18z m50 -43 c4 -26 -14 -30 -43 -10 -23 17 -11 39 18 35 14 -2 23 -11
25 -25z"/>
<path d="M1893 1489 c-46 -26 -67 -49 -47 -49 14 0 124 63 124 71 0 16 -24 9
-77 -22z"/>
<path d="M1921 1446 c-38 -20 -59 -36 -53 -40 12 -7 132 43 132 55 0 19 -19
15 -79 -15z"/>
<path d="M65 1431 c-3 -5 14 -21 37 -36 l43 -26 -52 5 c-65 6 -78 -13 -27 -44
43 -27 44 -41 2 -29 -44 12 -58 11 -58 -4 0 -21 140 -31 147 -10 2 6 -15 23
-39 38 l-43 26 54 -3 c73 -4 75 12 6 56 -61 40 -61 40 -70 27z"/>
<path d="M1071 1423 c-39 -14 -54 -14 -109 -3 -71 14 -83 8 -74 -35 5 -30 -12
-41 -158 -98 -158 -62 -184 -68 -324 -71 -68 -2 -128 -6 -134 -10 -8 -5 -9
-224 0 -310 4 -38 25 -44 158 -40 124 3 152 -2 290 -54 58 -22 143 -53 189
-71 46 -17 89 -35 95 -39 6 -5 25 -8 41 -7 41 3 42 3 57 18 15 15 76 47 90 47
7 0 58 22 198 87 19 9 40 17 45 18 6 1 23 6 38 13 39 16 67 15 67 -3 0 -14 21
-21 45 -15 6 2 27 2 48 1 26 -1 37 2 37 13 0 23 29 27 40 6 12 -22 45 -27 56
-9 3 6 5 68 4 138 -1 69 -2 152 -1 184 1 32 -3 66 -8 75 -13 25 -49 25 -56 1
-7 -23 -33 -25 -41 -4 -8 21 -40 19 -64 -5 -26 -26 -30 -25 -55 6 l-20 26 -29
-23 c-31 -25 -17 -27 -197 38 -126 45 -139 54 -133 93 4 21 0 31 -15 39 -24
13 -25 13 -80 -6z m-572 -432 c9 -6 11 -18 7 -36 -5 -21 -12 -26 -33 -23 -34
4 -51 31 -34 52 15 18 39 20 60 7z"/>
<path d="M393 682 c-28 -4 -73 -46 -73 -68 0 -9 15 -31 34 -49 19 -18 36 -40
38 -50 5 -29 -21 -29 -33 -1 -13 27 -18 30 -43 20 -28 -11 -18 -41 18 -58 40
-19 47 -19 79 -5 23 10 47 46 47 69 0 6 -16 28 -36 50 -27 30 -33 43 -26 56 9
15 11 15 22 -7 8 -13 13 -25 12 -26 -1 -2 0 -3 3 -3 3 0 9 0 14 0 13 0 23 34
16 53 -7 16 -37 24 -72 19z"/>
<path d="M608 681 c0 -3 -2 -11 -2 -16 -2 -20 -68 -115 -76 -110 -4 2 -15 -4
-25 -15 -12 -13 -14 -20 -5 -20 9 0 8 -7 -4 -25 -12 -19 -13 -25 -4 -26 28 -3
44 3 60 23 26 30 93 32 109 2 14 -27 42 -36 65 -20 15 11 15 16 -5 53 -11 23
-23 59 -27 80 -3 21 -11 45 -17 54 -12 16 -66 32 -69 20z m24 -101 c2 -17 -2
-25 -12 -26 -27 -1 -30 7 -14 32 19 28 21 28 26 -6z"/>
<path d="M840 677 c-15 -8 -33 -37 -50 -82 -41 -104 -44 -125 -22 -125 21 0
42 21 65 64 l15 30 6 -31 c12 -54 66 -84 109 -61 21 11 21 11 -5 32 -22 18
-58 74 -58 90 0 2 20 16 45 30 52 31 62 63 18 51 -28 -7 -61 -30 -76 -52 -17
-27 -25 -11 -12 21 17 40 4 52 -35 33z"/>
<path d="M1648 682 c-10 -2 -18 -10 -18 -17 0 -23 -59 -109 -76 -111 -22 -3
-36 -26 -24 -38 5 -5 3 -15 -6 -23 -8 -8 -12 -18 -9 -23 8 -13 48 1 65 22 22
27 97 32 105 7 9 -26 36 -38 63 -28 27 10 26 6 3 55 -10 21 -24 62 -30 90 -13
53 -36 74 -73 66z m14 -101 c2 -19 -2 -25 -19 -26 -27 -2 -28 3 -7 33 18 27
21 26 26 -7z"/>
<path d="M1058 633 c-11 -27 -26 -55 -33 -63 -7 -8 -12 -35 -11 -60 1 -45 3
-47 45 -41 5 0 14 16 21 35 9 28 15 33 40 32 26 -1 29 -4 27 -35 -3 -44 16
-50 48 -14 14 15 34 37 45 49 21 22 26 44 11 44 -6 0 -3 16 5 36 33 79 -26 90
-64 12 -19 -41 -26 -48 -52 -48 -35 0 -34 -3 -16 48 16 45 13 52 -21 52 -19 0
-28 -10 -45 -47z"/>
<path d="M1318 663 c-20 -24 -14 -64 21 -135 l27 -58 -33 -6 c-35 -7 -62 -37
-43 -49 45 -28 136 59 204 193 34 66 33 77 -3 56 -19 -11 -38 -38 -55 -76 -14
-33 -29 -57 -35 -54 -5 3 -12 30 -16 59 -9 75 -14 87 -34 87 -10 0 -25 -8 -33
-17z"/>
<path d="M162 458 c-16 -16 -15 -33 3 -68 14 -28 14 -30 -2 -30 -29 0 -46 16
-41 38 7 25 -16 37 -31 18 -16 -19 1 -58 33 -76 53 -28 111 23 76 65 -7 8 -9
22 -6 31 8 21 33 2 38 -28 4 -29 24 -34 31 -7 12 44 -68 90 -101 57z"/>
<path d="M1895 452 c-30 -6 -45 -22 -45 -48 0 -19 -5 -24 -25 -24 -36 0 -68
-35 -55 -60 26 -48 81 -57 116 -19 19 21 12 51 -10 43 -8 -3 -12 -12 -9 -20 8
-22 -25 -28 -53 -9 -21 13 -23 19 -13 31 7 8 17 13 23 11 6 -2 17 3 23 12 9
12 15 13 20 4 25 -37 113 -16 113 27 0 26 -20 26 -27 0 -3 -11 -14 -20 -24
-20 -25 0 -24 12 1 28 39 24 15 54 -35 44z m15 -37 c-7 -8 -16 -15 -21 -15 -5
0 -9 7 -9 15 0 9 9 15 21 15 18 0 19 -2 9 -15z"/>
<path d="M240 351 c0 -5 11 -12 25 -15 14 -4 25 -11 25 -17 0 -7 -9 -9 -22 -4
-55 16 -70 17 -79 4 -13 -21 -12 -25 26 -54 l36 -26 34 28 c40 33 43 56 13 77
-24 17 -58 21 -58 7z m4 -47 c22 -9 20 -24 -3 -24 -21 0 -34 13 -24 24 8 7 8
7 27 0z"/>
<path d="M329 283 c-29 -81 -31 -85 -55 -79 -32 8 -40 -11 -11 -25 20 -9 36
-5 103 29 57 29 74 42 62 47 -9 3 -30 -1 -47 -9 -41 -22 -44 -20 -26 14 16 30
13 50 -6 50 -5 0 -14 -12 -20 -27z"/>
<path d="M1687 290 c-8 -11 -16 -17 -20 -14 -3 3 -11 3 -17 -1 -14 -8 56 -85
77 -85 18 0 16 15 -3 30 -27 23 -35 47 -19 60 11 9 20 5 45 -20 20 -20 37 -30
47 -26 14 6 10 13 -17 41 -38 39 -72 45 -93 15z"/>
<path d="M486 191 c-40 -66 -42 -71 -22 -71 8 0 25 17 37 37 l23 37 11 -54
c14 -74 31 -75 75 -3 45 75 45 73 23 73 -11 0 -26 -14 -37 -35 -22 -41 -26
-40 -33 12 -10 83 -29 84 -77 4z"/>
<path d="M1595 242 c-65 -14 -57 -92 11 -103 22 -4 74 25 74 41 0 16 -28 11
-38 -7 -7 -11 -16 -14 -28 -9 -16 7 -13 11 20 28 30 15 36 22 25 29 -30 21
-45 25 -64 21z m21 -37 c-22 -17 -36 -19 -36 -7 0 14 12 22 34 22 21 -1 21 -1
2 -15z"/>
<path d="M1473 234 c-18 -8 65 -134 83 -127 12 4 11 12 -7 42 -12 20 -29 48
-38 63 -17 29 -18 30 -38 22z"/>
<path d="M1273 173 c-17 -3 -24 -15 -32 -51 -5 -25 -7 -50 -5 -54 3 -4 3 -8 0
-8 -3 0 -19 20 -37 45 -18 25 -40 45 -51 45 -10 0 -18 -3 -18 -6 0 -15 93
-124 106 -124 17 0 30 30 39 92 5 32 11 45 22 44 9 0 18 5 20 12 5 12 -3 13
-44 5z"/>
<path d="M1381 151 c-26 -26 -26 -32 -1 -63 24 -31 73 -29 105 2 18 19 19 22
5 48 -21 36 -79 43 -109 13z m73 -17 c12 -31 6 -44 -18 -44 -25 0 -43 30 -31
50 10 16 42 12 49 -6z"/>
<path d="M653 145 c-16 -7 -33 -23 -36 -35 -13 -51 79 -83 118 -40 42 46 -18
102 -82 75z m55 -27 c16 -16 -3 -48 -29 -48 -25 0 -35 25 -19 45 15 18 32 19
48 3z"/>
<path d="M832 149 c2 -7 12 -13 22 -15 27 -4 28 -8 18 -63 -10 -52 -8 -61 14
-61 11 0 26 56 29 105 0 6 13 9 28 8 18 -1 27 3 27 12 0 10 -11 15 -32 15 -18
1 -50 3 -72 6 -28 4 -37 3 -34 -7z"/>
<path d="M1300 133 c0 -21 34 -93 45 -93 19 0 25 11 14 29 -5 9 -13 28 -19 44
-8 23 -40 39 -40 20z"/>
<path d="M972 94 c-46 -32 -11 -96 48 -89 58 8 82 49 48 84 -22 25 -65 27 -96
5z m72 -28 c9 -13 7 -20 -8 -31 -24 -18 -58 -3 -49 23 13 35 39 39 57 8z"/>
</g>
</svg>
